<?xml version="1.0" encoding="utf-8"?>
<!-- Generator: Adobe Illustrator 15.1.0, SVG Export Plug-In . SVG Version: 6.00 Build 0)  -->
<!DOCTYPE svg PUBLIC "-//W3C//DTD SVG 1.1//EN" "http://www.w3.org/Graphics/SVG/1.1/DTD/svg11.dtd">
<svg version="1.1" id="Calque_1" xmlns="http://www.w3.org/2000/svg" xmlns:xlink="http://www.w3.org/1999/xlink" x="0px" y="0px"
	 width="12px" height="12px" viewBox="0 0 12 12" enable-background="new 0 0 12 12" xml:space="preserve">
<path d="M11.703,1.5H0.297C0.133,1.5,0,1.633,0,1.796v8.408C0,10.367,0.133,10.5,0.297,10.5h11.406c0.164,0,0.297-0.133,0.297-0.296
	V1.796C12,1.633,11.867,1.5,11.703,1.5z M11.406,9.908H4.453H2.13H1.046h-0.03H0.643H0.594V9.891V8.156V5.813v-3.72h10.812V9.908z"
	/>
<circle fill="none" stroke="#1D1D1B" stroke-width="0.25" stroke-miterlimit="10" cx="8.674" cy="3.69" r="1.174"/>
<circle fill="none" stroke="#1D1D1B" stroke-width="0.25" stroke-miterlimit="10" cx="8.282" cy="6.897" r="0.713"/>
<circle fill="none" stroke="#1D1D1B" stroke-width="0.25" stroke-miterlimit="10" cx="6.856" cy="8.907" r="0.713"/>
<g>
	<path fill="none" stroke="#1D1D1B" stroke-width="0.25" stroke-miterlimit="10" d="M5.625,5.781c0.063,0,0.121,0.019,0.179,0.036
		c0.039-0.162,0.064-0.329,0.064-0.502c0-1.196-0.969-2.166-2.166-2.166S1.536,4.119,1.536,5.315c0,1.197,0.971,2.167,2.167,2.167
		c0.57,0,1.084-0.225,1.471-0.585C5.052,6.779,4.975,6.615,4.975,6.432C4.975,6.072,5.266,5.781,5.625,5.781z"/>
	<path fill="none" stroke="#1D1D1B" stroke-width="0.25" stroke-miterlimit="10" d="M5.174,6.897
		c0.117,0.113,0.275,0.185,0.451,0.185c0.359,0,0.649-0.291,0.649-0.65c0-0.296-0.201-0.535-0.47-0.614"/>
	<path fill="none" stroke="#1D1D1B" stroke-width="0.25" stroke-miterlimit="10" d="M5.804,5.817"/>
	<path fill="none" stroke="#1D1D1B" stroke-width="0.25" stroke-miterlimit="10" d="M5.174,6.897"/>
	<path fill="none" stroke="#1D1D1B" stroke-width="0.25" stroke-miterlimit="10" d="M5.804,5.817C5.746,5.8,5.688,5.781,5.625,5.781
		c-0.359,0-0.65,0.291-0.65,0.65c0,0.184,0.077,0.348,0.199,0.466"/>
</g>
</svg>
